Coordinates
version=1
nRows=29
nColumns=24
inDegrees=yes

Units are S.I. units (second, meters, Newtons, ...)
Angles are in degrees.

endheader
time	pelvis_tilt	pelvis_list	pelvis_rotation	pelvis_tx	pelvis_ty	pelvis_tz	hip_flexion_r	hip_adduction_r	hip_rotation_r	knee_angle_r	ankle_angle_r	subtalar_angle_r	mtp_angle_r	hip_flexion_l	hip_adduction_l	hip_rotation_l	knee_angle_l	ankle_angle_l	subtalar_angle_l	mtp_angle_l	lumbar_extension	lumbar_bending	lumbar_rotation
      0.77083333	      0.10246367	      1.61399936	      5.32633546	     -0.34105511	      1.08478927	      0.30273755	      6.26035819	      1.02326288	     -1.88611074	    -14.19897537	      8.10016546	     -7.51818938	      6.21145013	     14.42016713	     -1.77627843	     -2.07254281	    -67.10264388	      8.78781903	      1.52023118	      4.23738245	    -11.60065310	      4.13691812	     -1.29652256
      0.77500000	      0.13669618	      1.74753110	      5.22625263	     -0.33578691	      1.08552171	      0.30320605	      5.75691840	      0.93402108	     -1.83481910	    -13.87784737	      8.18596066	     -7.42207853	      6.19380224	     14.85136423	     -1.63951766	     -2.25838977	    -66.67009790	      9.10239081	      1.76917446	      4.26008111	    -11.61363687	      3.91040102	     -1.16475770
      0.77916667	      0.16627670	      1.87651976	      5.11845033	     -0.33053560	      1.08619589	      0.30367621	      5.26133304	      0.84855368	     -1.77753790	    -13.55714167	      8.27297230	     -7.33051641	      6.17536045	     15.28055908	     -1.50922025	     -2.45286956	    -66.20087462	      9.40651724	      2.02766677	      4.28484713	    -11.61943944	      3.68445065	     -1.02106958
      0.78333333	      0.19881280	      1.99533990	      5.00993072	     -0.32529054	      1.08682541	      0.30413647	      4.76124554	      0.77284900	     -1.71548008	    -13.22987913	      8.35540928	     -7.24535983	      6.15785167	     15.69989634	     -1.39400304	     -2.65196345	    -65.69578002	      9.69714054	      2.28698717	      4.30996145	    -11.62920729	      3.47358303	     -0.88191373
      0.78750000	      0.26402726	      2.10023305	      4.88906483	     -0.32006046	      1.08747450	      0.30461017	      4.22279708	      0.71643055	     -1.63704691	    -12.88681469	      8.43069002	     -7.18939321	      6.10305818	     16.07309227	     -1.30448892	     -2.86609808	    -65.14994001	      9.97697115	      2.57258894	      4.36905662	    -11.67813471	      3.27946786	     -0.58613145
      0.79166667	      0.26882574	      2.23388328	      4.77314521	     -0.31482319	      1.08800118	      0.30507111	      3.75710339	      0.61883692	     -1.56890766	    -12.56756605	      8.50706129	     -7.11108193	      6.08878694	     16.49871745	     -1.17035986	     -3.07410924	    -64.55644921	     10.21136062	      2.81427759	      4.39187198	    -11.65549982	      3.04284518	     -0.53655174
      0.79583333	      0.31945819	      2.36311716	      4.63635839	     -0.30960401	      1.08856090	      0.30555621	      3.24734923	      0.52915335	     -1.49210618	    -12.25424455	      8.60967885	     -7.04600102	      6.06353724	     16.85824366	     -1.05787864	     -3.31200375	    -63.91616661	     10.45332523	      3.13036288	      4.42848340	    -11.67945773	      2.83776665	     -0.36327981
      0.80000000	      0.35993976	      2.47147967	      4.51366373	     -0.30440095	      1.08904566	      0.30601101	      2.73878026	      0.46055166	     -1.40419393	    -11.91344431	      8.69348083	     -6.98045536	      6.02774674	     17.23083600	     -0.96191027	     -3.52510471	    -63.25933029	     10.67568480	      3.40802644	      4.47611398	    -11.71217976	      2.62773335	     -0.15927905
      0.80416667	      0.36859626	      2.59379580	      4.38250436	     -0.29918911	      1.08944009	      0.30644623	      2.28061838	      0.36800424	     -1.33723949	    -11.60961644	      8.76791608	     -6.91545340	      6.00755247	     17.62077868	     -0.84574960	     -3.74907751	    -62.55419472	     10.86890783	      3.66182386	      4.50632297	    -11.68659525	      2.42043158	     -0.06060338
      0.80833333	      0.40167178	      2.70524004	      4.25294959	     -0.29399629	      1.08983295	      0.30687596	      1.79124598	      0.28842681	     -1.26016516	    -11.29135853	      8.85656376	     -6.85176544	      5.98598712	     17.97669748	     -0.74618651	     -3.96945995	    -61.81693095	     11.05205886	      3.93499812	      4.53964470	    -11.69808110	      2.22367562	      0.08369689
      0.81250000	      0.44990011	      2.81050374	      4.12355105	     -0.28883539	      1.09019952	      0.30731069	      1.28279401	      0.21671942	     -1.16909513	    -10.96139038	      8.95157690	     -6.78897516	      5.94917837	     18.31057089	     -0.65488741	     -4.18460983	    -61.05315957	     11.21917477	      4.19666256	      4.59057314	    -11.74971884	      2.01787638	      0.30264322
      0.81666667	      0.46467835	      2.92436358	      3.99258193	     -0.28365751	      1.09047904	      0.30771255	      0.82399822	      0.12660491	     -1.10445681	    -10.66321726	      9.03236768	     -6.72569614	      5.92902210	     18.66335109	     -0.54623755	     -4.39689522	    -60.24263075	     11.35656307	      4.42707469	      4.62039112	    -11.73470038	      1.82340208	      0.39450457
      0.82083333	      0.46683853	      3.02609260	      3.87770148	     -0.27848186	      1.09068675	      0.30809725	      0.36827513	      0.04873327	     -1.03583539	    -10.34137062	      9.11936930	     -6.64594294	      5.91597871	     19.02786409	     -0.44651705	     -4.58817712	    -59.41384349	     11.47721930	      4.63026037	      4.64152614	    -11.72082668	      1.61879654	      0.47944895
      0.82500000	      0.53760718	      3.11860251	      3.74208596	     -0.27336673	      1.09095248	      0.30847723	     -0.14845858	     -0.01781820	     -0.95592029	    -10.03878297	      9.23289773	     -6.58825085	      5.87852288	     19.30344869	     -0.36618739	     -4.79447594	    -58.54545934	     11.59658985	      4.86741557	      4.69086633	    -11.79490554	      1.45583208	      0.72553327
      0.82916667	      0.55503587	      3.21770492	      3.61821741	     -0.26821991	      1.09109981	      0.30883371	     -0.60613107	     -0.09862085	     -0.89071298	     -9.74485035	      9.33027448	     -6.51726966	      5.84032816	     19.62410063	     -0.26588528	     -4.97872514	    -57.64237678	     11.68209240	      5.03403781	      4.73743769	    -11.79767010	      1.27216189	      0.86466259
      0.83333333	      0.56122502	      3.32169485	      3.49740824	     -0.26308272	      1.09118287	      0.30917326	     -1.04517441	     -0.18835136	     -0.84245647	     -9.46358965	      9.42847499	     -6.44775959	      5.82370028	     19.94490638	     -0.15765663	     -5.16047275	    -56.70554074	     11.74615854	      5.18037959	      4.75856921	    -11.77962315	      1.09167045	      0.92532464
      0.83750000	      0.61789568	      3.40133176	      3.38160728	     -0.25798387	      1.09129967	      0.30948778	     -1.54448753	     -0.24951198	     -0.78378137	     -9.16437448	      9.54878182	     -6.36432179	      5.78800618	     20.20611962	     -0.07454412	     -5.32219794	    -55.74820481	     11.80056146	      5.29516011	      4.79790875	    -11.84644822	      0.93558230	      1.09489379
      0.84166667	      0.60272746	      3.48422248	      3.26880004	     -0.25285479	      1.09124672	      0.30978464	     -1.95336713	     -0.32250111	     -0.73922484	     -8.89562151	      9.64961166	     -6.29185551	      5.77054552	     20.53171653	      0.01969102	     -5.47692774	    -54.76065188	     11.84047214	      5.38446865	      4.81616267	    -11.80597991	      0.78231384	      1.15632465
      0.84583333	      0.65019629	      3.55490146	      3.16009218	     -0.24777352	      1.09125683	      0.31006470	     -2.43490117	     -0.37960197	     -0.69655564	     -8.61045968	      9.77832616	     -6.19962586	      5.73606515	     20.78121404	      0.10143047	     -5.61583022	    -53.74648238	     11.85689291	      5.42102666	      4.84814261	    -11.86253166	      0.63887575	      1.30235734
      0.85000000	      0.64253494	      3.61923018	      3.05624724	     -0.24267136	      1.09112486	      0.31032003	     -2.84662943	     -0.43559808	     -0.66122856	     -8.34873936	      9.87995404	     -6.12352464	      5.71845730	     21.07905063	      0.18334318	     -5.74302657	    -52.70736526	     11.87496469	      5.45235400	      4.86262651	    -11.83829051	      0.51035509	      1.35512730
      0.85416667	      0.66523731	      3.67353919	      2.95898864	     -0.23759875	      1.09098892	      0.31054895	     -3.29384193	     -0.48081863	     -0.62934357	     -8.07947042	     10.01734200	     -6.02290930	      5.68253631	     21.33622325	      0.26025401	     -5.84865457	    -51.64646068	     11.86242952	      5.40435184	      4.88902417	    -11.86977362	      0.39273281	      1.48039667
      0.85833333	      0.66681358	      3.72552670	      2.86351505	     -0.23251671	      1.09078222	      0.31076410	     -3.71231820	     -0.52693760	     -0.60602416	     -7.82378399	     10.14598552	     -5.92597573	      5.64693974	     21.60158866	      0.33794250	     -5.94787481	    -50.55534372	     11.84491845	      5.34082826	      4.91143608	    -11.86835365	      0.28104002	      1.55886223
      0.86250000	      0.65879710	      3.76762143	      2.76878809	     -0.22743583	      1.09051294	      0.31097740	     -4.11498982	     -0.56345515	     -0.58002022	     -7.57756208	     10.25918953	     -5.84561943	      5.62744652	     21.86686300	      0.40441105	     -6.04291224	    -49.44322750	     11.83166662	      5.27828257	      4.92081836	    -11.85175461	      0.18158890	      1.59807604
      0.86666667	      0.64939142	      3.80033575	      2.68203679	     -0.22236541	      1.09018947	      0.31115344	     -4.51645969	     -0.59192068	     -0.55790248	     -7.33118716	     10.38941839	     -5.75358072	      5.60614102	     22.12445014	      0.46953858	     -6.11493617	    -48.31002429	     11.79689069	      5.15084685	      4.92851607	    -11.84239736	      0.09497652	      1.65522880
      0.87083333	      0.65095269	      3.83032030	      2.60035298	     -0.21730671	      1.08984498	      0.31132163	     -4.93079750	     -0.61692888	     -0.54154336	     -7.08163355	     10.52246588	     -5.65533660	      5.58467482	     22.35832182	      0.53372338	     -6.17634789	    -47.15278240	     11.75693377	      4.99610088	      4.93426240	    -11.85453337	      0.01164930	      1.70562924
      0.87500000	      0.65582247	      3.84443433	      2.52201359	     -0.21225863	      1.08946393	      0.31146255	     -5.34045208	     -0.62659339	     -0.53318877	     -6.85023773	     10.66100943	     -5.55044324	      5.55810824	     22.57743515	      0.58915008	     -6.21105783	    -45.97299569	     11.70641227	      4.80430968	      4.93994462	    -11.86383884	     -0.05082780	      1.75992315
      0.87916667	      0.63838143	      3.84863742	      2.44943247	     -0.20720959	      1.08900179	      0.31158049	     -5.72497761	     -0.62732206	     -0.52352621	     -6.62024518	     10.79461288	     -5.45180500	      5.53219992	     22.81177944	      0.63577430	     -6.24087915	    -44.77721142	     11.66363132	      4.61504388	      4.94374408	    -11.85343349	     -0.09603008	      1.80106609
      0.88333333	      0.62323295	      3.84346539	      2.38326655	     -0.20216900	      1.08848716	      0.31168177	     -6.10942278	     -0.61773067	     -0.51964163	     -6.39607881	     10.93646881	     -5.35132838	      5.50250954	     23.03450573	      0.67716321	     -6.25222580	    -43.56564430	     11.61797425	      4.40136012	      4.94654250	    -11.84613978	     -0.13027499	      1.83849496
      0.88750000	      0.58925300	      3.83024143	      2.32003133	     -0.19711347	      1.08790046	      0.31176488	     -6.47373062	     -0.60117392	     -0.50810428	     -6.17421650	     11.07541083	     -5.25494524	      5.47380627	     23.26601125	      0.71215293	     -6.25594420	    -42.33686357	     11.57734821	      4.19239387	      4.94768481	    -11.82095663	     -0.15578455	      1.86605726
